<?xml version="1.0" encoding="UTF-8" standalone="no"?>
<!-- Created with Inkscape (http://www.inkscape.org/) -->

<svg
   width="16"
   height="16"
   id="svg9892"
   version="1.1"
   fill="#ff0000"
   style="color:#b2b9bf"
   xmlns="http://www.w3.org/2000/svg"
   xmlns:svg="http://www.w3.org/2000/svg"
   xmlns:rdf="http://www.w3.org/1999/02/22-rdf-syntax-ns#"
   xmlns:cc="http://creativecommons.org/ns#"
   xmlns:dc="http://purl.org/dc/elements/1.1/">
  <defs
     id="defs9894">
    <linearGradient
       id="preview_bg"
       gradientTransform="matrix(2.0661157,0,0,1.3333334,-483.4711,-380.85039)">
      <stop
         style="stop-color:#7b3c55;stop-opacity:1;"
         offset="0"
         id="stop2599" />
    </linearGradient>
    <linearGradient
       id="selected_fg_color"
       gradientTransform="translate(-150.36772,28.215453)">
      <stop
         offset="0"
         id="stop6555"
         style="stop-color:#2b3136;stop-opacity:1" />
    </linearGradient>
    <linearGradient
       id="selected_bg_color"
       gradientTransform="matrix(0,-0.83350009,0.83350009,0,103.35651,-5.5580946)">
      <stop
         offset="0"
         id="stop5956"
         style="stop-color:currentColor;stop-opacity:1;" />
    </linearGradient>
  </defs>
  <metadata
     id="metadata9897">
    <rdf:RDF>
      <cc:Work
         rdf:about="">
        <dc:format>image/svg+xml</dc:format>
        <dc:type
           rdf:resource="http://purl.org/dc/dcmitype/StillImage" />
        <dc:title />
      </cc:Work>
    </rdf:RDF>
  </metadata>
  <g
     id="layer7"
     transform="translate(-208,-24.000004)">
    <g
       id="button-maximize"
       transform="translate(119.95133,-80.623844)">
      <rect
         style="color:#dadfe6;display:inline;opacity:1;fill:none;fill-opacity:1;fill-rule:nonzero;stroke-width:1;stroke-miterlimit:4;stroke-dasharray:none"
         id="rect5124"
         width="16"
         height="16"
         x="88.048668"
         y="104.62385"
         rx="2"
         ry="2" />
      <path
         style="color:#dadfe6;display:inline;opacity:1;fill:url(#selected_bg_color);fill-opacity:1;stroke-width:0.714286"
         d="m 95.839382,112.83313 a 0.71428571,0.71428571 0 0 0 -1.01,0 l -2.35214,2.35214 v -1.84714 a 0.71428571,0.71428571 0 0 0 -1.42857,0 v 3.57142 a 0.71428571,0.71428571 0 0 0 0.71429,0.71429 h 3.57142 a 0.71428586,0.71428586 0 1 0 0,-1.42857 h -1.84714 l 2.35214,-2.35214 a 0.71428571,0.71428571 0 0 0 0,-1.01 z m 4.494998,-5.20929 h -3.571418 a 0.71428571,0.71428571 0 0 0 0,1.42857 h 1.84715 l -2.35215,2.35214 a 0.71428571,0.71428571 0 1 0 1.01,1.01 l 2.35215,-2.35214 v 1.84714 a 0.71428571,0.71428571 0 0 0 1.428558,0 v -3.57142 a 0.71428571,0.71428571 0 0 0 -0.71429,-0.71429 z"
         id="path1075" />
    </g>
  </g>
</svg>
