<?xml version="1.0" encoding="UTF-8" standalone="no"?>
<!-- Created with Inkscape (http://www.inkscape.org/) -->

<svg
   width="52"
   height="24"
   id="svg9892"
   version="1.1"
   fill="#ff0000"
   style="color:#b2b9bf"
   xmlns="http://www.w3.org/2000/svg"
   xmlns:svg="http://www.w3.org/2000/svg"
   xmlns:rdf="http://www.w3.org/1999/02/22-rdf-syntax-ns#"
   xmlns:cc="http://creativecommons.org/ns#"
   xmlns:dc="http://purl.org/dc/elements/1.1/">
  <defs
     id="defs9894">
    <linearGradient
       id="preview_bg"
       gradientTransform="matrix(2.0661157,0,0,1.3333334,-483.4711,-380.85039)">
      <stop
         style="stop-color:#7b3c55;stop-opacity:1;"
         offset="0"
         id="stop2599" />
    </linearGradient>
    <linearGradient
       id="selected_fg_color"
       gradientTransform="translate(-150.36772,28.215453)">
      <stop
         offset="0"
         id="stop6555"
         style="stop-color:#2b3136;stop-opacity:1" />
    </linearGradient>
    <linearGradient
       id="selected_bg_color"
       gradientTransform="matrix(0,-0.83350009,0.83350009,0,103.35651,-5.5580946)">
      <stop
         offset="0"
         id="stop5956"
         style="stop-color:currentColor;stop-opacity:1;" />
    </linearGradient>
  </defs>
  <metadata
     id="metadata9897">
    <rdf:RDF>
      <cc:Work
         rdf:about="">
        <dc:format>image/svg+xml</dc:format>
        <dc:type
           rdf:resource="http://purl.org/dc/dcmitype/StillImage" />
        <dc:title />
      </cc:Work>
    </rdf:RDF>
  </metadata>
  <g
     id="layer2"
     transform="translate(-307,-1.0000026)">
    <g
       id="switch-active-insensitive"
       style="display:inline;opacity:0.5"
       transform="translate(-698,-327)">
      <g
         transform="matrix(-1,0,0,1,1177,420)"
         id="g1667">
        <g
           id="g1665"
           transform="translate(120,-116.99998)"
           style="display:inline">
          <g
             transform="translate(0,-1004.3622)"
             id="g1663">
            <rect
               y="1029.3622"
               x="0"
               height="24"
               width="52"
               id="rect1657"
               style="display:inline;opacity:0;fill:#434343;fill-opacity:1;stroke:none;stroke-width:1;stroke-linecap:butt;stroke-linejoin:miter;stroke-miterlimit:4;stroke-dasharray:none;stroke-dashoffset:0;stroke-opacity:1" />
            <rect
               rx="11"
               ry="11"
               y="1031.3622"
               x="1"
               height="20"
               width="50"
               id="rect1659"
               style="opacity:0.6;fill:url(#selected_bg_color);fill-opacity:1;fill-rule:nonzero;stroke:none" />
            <circle
               r="9"
               cy="1041.3622"
               cx="41"
               id="circle1661"
               style="fill:url(#selected_fg_color);fill-opacity:1;fill-rule:nonzero;stroke:none" />
          </g>
        </g>
      </g>
      <path
         style="color:#bebebe;font-style:normal;font-variant:normal;font-weight:normal;font-stretch:normal;font-size:medium;line-height:normal;font-family:'Andale Mono';-inkscape-font-specification:'Andale Mono';text-indent:0;text-align:start;text-decoration:none;text-decoration-line:none;letter-spacing:normal;word-spacing:normal;text-transform:none;writing-mode:lr-tb;direction:ltr;text-anchor:start;display:inline;overflow:visible;visibility:visible;opacity:1;fill:url(#selected_fg_color);fill-opacity:1;fill-rule:nonzero;stroke:none;stroke-width:1.78125;marker:none;enable-background:new"
         id="path1669"
         d="m 1043.0028,337 h 0.75 c 0.01,-9e-5 0.016,-3.5e-4 0.023,0 0.1912,0.008 0.3824,0.0964 0.5156,0.23437 l 1.711,1.71094 1.7343,-1.71094 c 0.1993,-0.17287 0.335,-0.22912 0.5157,-0.23437 h 0.75 v 0.75 c 0,0.21485 -0.026,0.41298 -0.1875,0.5625 l -1.711,1.71093 1.6875,1.6875 c 0.1412,0.14113 0.211,0.34009 0.211,0.53907 V 343 h -0.75 c -0.199,-10e-6 -0.398,-0.0698 -0.5391,-0.21094 l -1.7109,-1.71094 -1.711,1.71094 c -0.1411,0.14114 -0.3401,0.21094 -0.539,0.21094 h -0.75 v -0.75 c 0,-0.19897 0.07,-0.39794 0.2109,-0.53907 l 1.7109,-1.6875 -1.7109,-1.71093 c -0.1581,-0.14598 -0.2274,-0.35194 -0.2109,-0.5625 V 337 Z" />
    </g>
  </g>
</svg>
